<svg width="22" height="19" viewBox="0 0 22 19" fill="none" xmlns="http://www.w3.org/2000/svg">
<path d="M21.4897 17.1957L20.1528 5.9457C20.1095 5.57915 19.9325 5.24146 19.6557 4.99724C19.379 4.75301 19.0219 4.61939 18.6528 4.62195H15.5C15.5 3.42847 15.0259 2.28388 14.182 1.43997C13.3381 0.596054 12.1935 0.121948 11 0.121948C9.80653 0.121948 8.66194 0.596054 7.81803 1.43997C6.97411 2.28388 6.50001 3.42847 6.50001 4.62195H3.34344C2.97435 4.61939 2.61728 4.75301 2.34053 4.99724C2.06379 5.24146 1.8868 5.57915 1.84344 5.9457L0.506567 17.1957C0.482068 17.4057 0.502227 17.6184 0.565723 17.8201C0.629218 18.0217 0.734616 18.2077 0.875005 18.3657C1.01641 18.5244 1.18969 18.6515 1.38353 18.7388C1.57738 18.826 1.78744 18.8714 2.00001 18.8719H19.9925C20.2063 18.8724 20.4178 18.8276 20.6131 18.7403C20.8083 18.653 20.9828 18.5254 21.125 18.3657C21.2647 18.2073 21.3694 18.0213 21.4323 17.8196C21.4951 17.618 21.5147 17.4054 21.4897 17.1957ZM11 1.62195C11.7957 1.62195 12.5587 1.93802 13.1213 2.50063C13.6839 3.06324 14 3.8263 14 4.62195H8.00001C8.00001 3.8263 8.31608 3.06324 8.87868 2.50063C9.44129 1.93802 10.2044 1.62195 11 1.62195ZM2.00001 17.3719L3.34344 6.12195H6.50001V8.37195C6.50001 8.57086 6.57902 8.76163 6.71968 8.90228C6.86033 9.04293 7.05109 9.12195 7.25001 9.12195C7.44892 9.12195 7.63968 9.04293 7.78034 8.90228C7.92099 8.76163 8.00001 8.57086 8.00001 8.37195V6.12195H14V8.37195C14 8.57086 14.079 8.76163 14.2197 8.90228C14.3603 9.04293 14.5511 9.12195 14.75 9.12195C14.9489 9.12195 15.1397 9.04293 15.2803 8.90228C15.421 8.76163 15.5 8.57086 15.5 8.37195V6.12195H18.6641L19.9925 17.3719H2.00001Z" fill="#141414"/>
</svg>
