<svg width="12" height="12" viewBox="0 0 12 12" fill="none" xmlns="http://www.w3.org/2000/svg">
<path d="M11.5 1.2439V4.2439C11.5 4.3765 11.4473 4.50368 11.3536 4.59745C11.2598 4.69122 11.1326 4.7439 11 4.7439C10.8674 4.7439 10.7402 4.69122 10.6464 4.59745C10.5527 4.50368 10.5 4.3765 10.5 4.2439V2.45077L7.85375 5.09765C7.75993 5.19147 7.63268 5.24417 7.5 5.24417C7.36732 5.24417 7.24007 5.19147 7.14625 5.09765C7.05243 5.00383 6.99972 4.87658 6.99972 4.7439C6.99972 4.61121 7.05243 4.48397 7.14625 4.39015L9.79313 1.7439H8C7.86739 1.7439 7.74021 1.69122 7.64645 1.59745C7.55268 1.50368 7.5 1.3765 7.5 1.2439C7.5 1.11129 7.55268 0.984111 7.64645 0.890343C7.74021 0.796575 7.86739 0.743896 8 0.743896H11C11.1326 0.743896 11.2598 0.796575 11.3536 0.890343C11.4473 0.984111 11.5 1.11129 11.5 1.2439ZM4.14625 7.39015L1.5 10.037V8.2439C1.5 8.11129 1.44732 7.98411 1.35355 7.89034C1.25979 7.79657 1.13261 7.7439 1 7.7439C0.867392 7.7439 0.740215 7.79657 0.646447 7.89034C0.552679 7.98411 0.5 8.11129 0.5 8.2439V11.2439C0.5 11.3765 0.552679 11.5037 0.646447 11.5975C0.740215 11.6912 0.867392 11.7439 1 11.7439H4C4.13261 11.7439 4.25979 11.6912 4.35355 11.5975C4.44732 11.5037 4.5 11.3765 4.5 11.2439C4.5 11.1113 4.44732 10.9841 4.35355 10.8903C4.25979 10.7966 4.13261 10.7439 4 10.7439H2.20687L4.85375 8.09765C4.94757 8.00383 5.00028 7.87658 5.00028 7.7439C5.00028 7.61121 4.94757 7.48397 4.85375 7.39015C4.75993 7.29633 4.63268 7.24362 4.5 7.24362C4.36732 7.24362 4.24007 7.29633 4.14625 7.39015ZM11 7.7439C10.8674 7.7439 10.7402 7.79657 10.6464 7.89034C10.5527 7.98411 10.5 8.11129 10.5 8.2439V10.037L7.85375 7.39015C7.75993 7.29633 7.63268 7.24362 7.5 7.24362C7.36732 7.24362 7.24007 7.29633 7.14625 7.39015C7.05243 7.48397 6.99972 7.61121 6.99972 7.7439C6.99972 7.87658 7.05243 8.00383 7.14625 8.09765L9.79313 10.7439H8C7.86739 10.7439 7.74021 10.7966 7.64645 10.8903C7.55268 10.9841 7.5 11.1113 7.5 11.2439C7.5 11.3765 7.55268 11.5037 7.64645 11.5975C7.74021 11.6912 7.86739 11.7439 8 11.7439H11C11.1326 11.7439 11.2598 11.6912 11.3536 11.5975C11.4473 11.5037 11.5 11.3765 11.5 11.2439V8.2439C11.5 8.11129 11.4473 7.98411 11.3536 7.89034C11.2598 7.79657 11.1326 7.7439 11 7.7439ZM2.20687 1.7439H4C4.13261 1.7439 4.25979 1.69122 4.35355 1.59745C4.44732 1.50368 4.5 1.3765 4.5 1.2439C4.5 1.11129 4.44732 0.984111 4.35355 0.890343C4.25979 0.796575 4.13261 0.743896 4 0.743896H1C0.867392 0.743896 0.740215 0.796575 0.646447 0.890343C0.552679 0.984111 0.5 1.11129 0.5 1.2439V4.2439C0.5 4.3765 0.552679 4.50368 0.646447 4.59745C0.740215 4.69122 0.867392 4.7439 1 4.7439C1.13261 4.7439 1.25979 4.69122 1.35355 4.59745C1.44732 4.50368 1.5 4.3765 1.5 4.2439V2.45077L4.14625 5.09765C4.24007 5.19147 4.36732 5.24417 4.5 5.24417C4.63268 5.24417 4.75993 5.19147 4.85375 5.09765C4.94757 5.00383 5.00028 4.87658 5.00028 4.7439C5.00028 4.61121 4.94757 4.48397 4.85375 4.39015L2.20687 1.7439Z" fill="#1C1C1C"/>
</svg>
