<svg width="18" height="15" viewBox="0 0 18 15" fill="none" xmlns="http://www.w3.org/2000/svg">
<path d="M18 7.62195C18 7.82086 17.921 8.01163 17.7803 8.15228C17.6397 8.29293 17.4489 8.37195 17.25 8.37195H0.75C0.551088 8.37195 0.360322 8.29293 0.21967 8.15228C0.0790178 8.01163 0 7.82086 0 7.62195C0 7.42304 0.0790178 7.23227 0.21967 7.09162C0.360322 6.95097 0.551088 6.87195 0.75 6.87195H17.25C17.4489 6.87195 17.6397 6.95097 17.7803 7.09162C17.921 7.23227 18 7.42304 18 7.62195ZM0.75 2.37195H17.25C17.4489 2.37195 17.6397 2.29293 17.7803 2.15228C17.921 2.01163 18 1.82086 18 1.62195C18 1.42304 17.921 1.23227 17.7803 1.09162C17.6397 0.950966 17.4489 0.871948 17.25 0.871948H0.75C0.551088 0.871948 0.360322 0.950966 0.21967 1.09162C0.0790178 1.23227 0 1.42304 0 1.62195C0 1.82086 0.0790178 2.01163 0.21967 2.15228C0.360322 2.29293 0.551088 2.37195 0.75 2.37195ZM17.25 12.8719H0.75C0.551088 12.8719 0.360322 12.951 0.21967 13.0916C0.0790178 13.2323 0 13.423 0 13.6219C0 13.8209 0.0790178 14.0116 0.21967 14.1523C0.360322 14.2929 0.551088 14.3719 0.75 14.3719H17.25C17.4489 14.3719 17.6397 14.2929 17.7803 14.1523C17.921 14.0116 18 13.8209 18 13.6219C18 13.423 17.921 13.2323 17.7803 13.0916C17.6397 12.951 17.4489 12.8719 17.25 12.8719Z" fill="#141414"/>
</svg>
