<svg width="112" height="28" viewBox="0 0 112 28" fill="none" xmlns="http://www.w3.org/2000/svg">
<path d="M1.81504 5.92528C2.55804 4.49505 6.45608 1.02643 9.60175 0.352417C11.0119 0.0502685 11.5287 0.82984 11.5941 1.9649C17.957 2.70022 23.899 8.05941 25.2621 14.5614C25.6308 16.3202 25.6294 17.9953 25.3113 19.5179L26.864 19.4934C26.1203 21.5289 23.6464 25.7877 17.8219 27.009C17.6002 27.0555 17.3789 27.0923 17.1582 27.1199C16.6025 27.2016 16.026 27.2439 15.431 27.2439C8.53311 27.2439 1.75087 21.5657 0.28248 14.5614C-0.416957 11.225 0.215424 8.18952 1.81504 5.92528Z" fill="#4338CA"/>
<ellipse cx="12.2637" cy="12.8382" rx="12.2637" ry="12.8382" transform="matrix(1 0 0.205179 0.978724 0.235565 0)" fill="#6366F1"/>
<ellipse cx="9.63192" cy="10.0786" rx="9.63192" ry="10.0786" transform="matrix(1 0 0.205179 0.978724 3.69427 2.11377)" fill="white"/>
<ellipse cx="7.12925" cy="7.28225" rx="7.12925" ry="7.28225" transform="matrix(1 0 0.205179 0.978724 7.01994 4.5343)" fill="#6366F1"/>
<circle cx="4.56832" cy="4.56832" r="4.56832" transform="matrix(1 0 0.205179 0.978724 10.5709 6.89508)" fill="white"/>
<circle cx="2.25464" cy="2.25464" r="2.25464" transform="matrix(1 0 0.205179 0.978724 13.3595 9.15961)" fill="#6366F1"/>
<path d="M48.0068 19.8653C48.0068 20.022 48.1339 20.149 48.2906 20.149H50.4479C50.6047 20.149 50.7317 20.022 50.7317 19.8653V9.50432H48.2906C48.1339 9.50432 48.0068 9.63138 48.0068 9.78811V19.8653Z" fill="#6366F1"/>
<path d="M48.0946 7.81842C48.356 8.09287 48.7546 8.23009 49.2904 8.23009C49.8262 8.23009 50.2183 8.09287 50.4666 7.81842C50.7149 7.5309 50.8391 7.17804 50.8391 6.75983C50.8391 6.31548 50.7149 5.95608 50.4666 5.68163C50.2183 5.40718 49.8262 5.26996 49.2904 5.26996C48.7546 5.26996 48.356 5.40718 48.0946 5.68163C47.8463 5.95608 47.7221 6.31548 47.7221 6.75983C47.7221 7.17804 47.8463 7.5309 48.0946 7.81842Z" fill="#6366F1"/>
<path fill-rule="evenodd" clip-rule="evenodd" d="M43.7115 15.1697C42.8751 15.5618 41.8557 15.7579 40.6534 15.7579H38.497V19.8653C38.497 20.022 38.3699 20.149 38.2132 20.149H35.9971C35.8403 20.149 35.7133 20.022 35.7133 19.8653V6.02423C35.7133 5.8675 35.8403 5.74044 35.9971 5.74044H38.2132C38.2438 5.74044 38.2733 5.7453 38.3009 5.75427C38.3286 5.7453 38.3581 5.74044 38.3887 5.74044H40.6534C41.8557 5.74044 42.8751 5.93648 43.7115 6.32855C44.561 6.72062 45.2079 7.28259 45.6523 8.01446C46.0966 8.73325 46.3188 9.58927 46.3188 10.5825V10.8962C46.3188 11.8894 46.0966 12.752 45.6523 13.4838C45.2079 14.2026 44.561 14.7646 43.7115 15.1697ZM42.3001 8.48494C41.9211 8.26277 41.4506 8.15168 40.8886 8.15168H38.497V13.3466H40.8886C41.4506 13.3466 41.9211 13.2355 42.3001 13.0134C42.6921 12.7912 42.9862 12.4841 43.1822 12.092C43.3913 11.6999 43.4959 11.249 43.4959 10.7393C43.4959 10.2297 43.3913 9.77877 43.1822 9.3867C42.9862 8.99463 42.6921 8.69404 42.3001 8.48494Z" fill="#6366F1"/>
<path d="M53.1757 20.149C53.019 20.149 52.892 20.022 52.892 19.8653V9.78811C52.892 9.63138 53.019 9.50432 53.1757 9.50432H54.7646C54.9213 9.50432 55.0483 9.63138 55.0483 9.78811V12.1275C55.1115 11.8544 55.1899 11.6008 55.2836 11.3667C55.5711 10.6348 55.9958 10.0859 56.5578 9.71996C57.1329 9.35403 57.8451 9.17106 58.6946 9.17106H58.8122C60.0799 9.17106 61.0405 9.58274 61.6939 10.4061C62.3474 11.2164 62.6741 12.4318 62.6741 14.0523V19.8653C62.6741 20.022 62.5471 20.149 62.3903 20.149H60.233C60.0763 20.149 59.9492 20.022 59.9492 19.8653V13.8171C59.9492 13.1637 59.7597 12.6344 59.3807 12.2292C59.0148 11.8241 58.5051 11.6215 57.8516 11.6215C57.1851 11.6215 56.6428 11.8306 56.2246 12.2488C55.8194 12.654 55.6168 13.2029 55.6168 13.8955V19.8653C55.6168 20.022 55.4898 20.149 55.3331 20.149H53.1757Z" fill="#6366F1"/>
<path fill-rule="evenodd" clip-rule="evenodd" d="M72.8373 15.1697C72.0009 15.5618 70.9815 15.7579 69.7792 15.7579H67.6228V19.8653C67.6228 20.022 67.4957 20.149 67.339 20.149H65.1229C64.9661 20.149 64.8391 20.022 64.8391 19.8653V6.02423C64.8391 5.8675 64.9661 5.74044 65.1229 5.74044H67.339C67.3696 5.74044 67.3991 5.7453 67.4268 5.75427C67.4544 5.7453 67.4839 5.74044 67.5145 5.74044H69.7792C70.9815 5.74044 72.0009 5.93648 72.8373 6.32855C73.6868 6.72062 74.3337 7.28259 74.7781 8.01446C75.2224 8.73325 75.4446 9.58927 75.4446 10.5825V10.8962C75.4446 11.8894 75.2224 12.752 74.7781 13.4838C74.3337 14.2026 73.6868 14.7646 72.8373 15.1697ZM71.4259 8.48494C71.0469 8.26277 70.5764 8.15168 70.0144 8.15168H67.6228V13.3466H70.0144C70.5764 13.3466 71.0469 13.2355 71.4259 13.0134C71.8179 12.7912 72.112 12.4841 72.308 12.092C72.5171 11.6999 72.6217 11.249 72.6217 10.7393C72.6217 10.2297 72.5171 9.77877 72.308 9.3867C72.112 8.99463 71.8179 8.69404 71.4259 8.48494Z" fill="#6366F1"/>
<path fill-rule="evenodd" clip-rule="evenodd" d="M81.5097 20.5215C80.5688 20.5215 79.7389 20.3712 79.0201 20.0706C78.3013 19.77 77.6936 19.3649 77.197 18.8552C76.7003 18.3325 76.3213 17.7443 76.06 17.0909C75.8116 16.4374 75.6875 15.7579 75.6875 15.0521V14.6405C75.6875 13.9086 75.8182 13.2159 76.0796 12.5625C76.354 11.896 76.7396 11.3078 77.2362 10.7982C77.7459 10.2754 78.3601 9.87026 79.0789 9.58274C79.7977 9.28215 80.608 9.13186 81.5097 9.13186C82.4115 9.13186 83.2218 9.28215 83.9406 9.58274C84.6594 9.87026 85.2671 10.2754 85.7637 10.7982C86.2734 11.3078 86.6589 11.896 86.9203 12.5625C87.1817 13.2159 87.3124 13.9086 87.3124 14.6405V15.0521C87.3124 15.7579 87.1817 16.4374 86.9203 17.0909C86.672 17.7443 86.2995 18.3325 85.8029 18.8552C85.3063 19.3649 84.6986 19.77 83.9798 20.0706C83.261 20.3712 82.4376 20.5215 81.5097 20.5215ZM81.5097 18.1887C82.1763 18.1887 82.7382 18.0449 83.1957 17.7574C83.6531 17.4568 83.9994 17.0582 84.2346 16.5616C84.4699 16.0519 84.5875 15.4769 84.5875 14.8365C84.5875 14.183 84.4633 13.608 84.215 13.1114C83.9798 12.6017 83.6269 12.2031 83.1564 11.9156C82.699 11.615 82.1501 11.4647 81.5097 11.4647C80.8694 11.4647 80.3139 11.615 79.8434 11.9156C79.386 12.2031 79.0332 12.6017 78.7849 13.1114C78.5365 13.608 78.4124 14.183 78.4124 14.8365C78.4124 15.4769 78.53 16.0519 78.7653 16.5616C79.0136 17.0582 79.3664 17.4568 79.8238 17.7574C80.2813 18.0449 80.8432 18.1887 81.5097 18.1887Z" fill="#6366F1"/>
<path d="M89.2279 19.8653C89.2279 20.022 89.3549 20.149 89.5117 20.149H91.669C91.8257 20.149 91.9528 20.022 91.9528 19.8653V9.50432H89.5117C89.3549 9.50432 89.2279 9.63138 89.2279 9.78811V19.8653Z" fill="#6366F1"/>
<path d="M89.3156 7.81842C89.577 8.09287 89.9756 8.23009 90.5114 8.23009C91.0473 8.23009 91.4393 8.09287 91.6877 7.81842C91.936 7.5309 92.0601 7.17804 92.0601 6.75983C92.0601 6.31548 91.936 5.95608 91.6877 5.68163C91.4393 5.40718 91.0473 5.26996 90.5114 5.26996C89.9756 5.26996 89.577 5.40718 89.3156 5.68163C89.0673 5.95608 88.9432 6.31548 88.9432 6.75983C88.9432 7.17804 89.0673 7.5309 89.3156 7.81842Z" fill="#6366F1"/>
<path d="M94.3968 20.149C94.2401 20.149 94.113 20.022 94.113 19.8653V9.78811C94.113 9.63138 94.24 9.50432 94.3968 9.50432H95.9856C96.1423 9.50432 96.2694 9.63138 96.2694 9.78811V12.1275C96.3325 11.8544 96.4109 11.6008 96.5046 11.3667C96.7921 10.6348 97.2169 10.0859 97.7789 9.71996C98.3539 9.35403 99.0661 9.17106 99.9156 9.17106H100.033C101.301 9.17106 102.262 9.58274 102.915 10.4061C103.568 11.2164 103.895 12.4318 103.895 14.0523V19.8653C103.895 20.022 103.768 20.149 103.611 20.149H101.454C101.297 20.149 101.17 20.022 101.17 19.8653V13.8171C101.17 13.1637 100.981 12.6344 100.602 12.2292C100.236 11.8241 99.7261 11.6215 99.0727 11.6215C98.4062 11.6215 97.8638 11.8306 97.4456 12.2488C97.0405 12.654 96.8379 13.2029 96.8379 13.8955V19.8653C96.8379 20.022 96.7108 20.149 96.5541 20.149H94.3968Z" fill="#6366F1"/>
<path d="M108.04 19.9138C108.68 20.1621 109.491 20.2863 110.471 20.2863H111.716C111.873 20.2863 112 20.1592 112 20.0025V18.2372C112 18.0805 111.873 17.9535 111.716 17.9535H110.334C109.811 17.9535 109.406 17.8162 109.118 17.5418C108.844 17.2543 108.707 16.8491 108.707 16.3264L108.716 11.5039H111.716C111.873 11.5039 112 11.3768 112 11.2201V9.78811C112 9.63138 111.873 9.50432 111.716 9.50432H108.72L108.726 6.78934C108.726 6.63238 108.599 6.50498 108.442 6.50498H106.461C106.304 6.50498 106.177 6.63169 106.177 6.7882L106.172 9.50432H104.756C104.599 9.50432 104.472 9.63138 104.472 9.78811V11.2201C104.472 11.3768 104.599 11.5039 104.756 11.5039H106.168L106.158 16.1499C106.158 17.1824 106.315 18.0057 106.629 18.62C106.942 19.2211 107.413 19.6524 108.04 19.9138Z" fill="#6366F1"/>
</svg>
