<svg width="10" height="10" viewBox="0 0 10 10" fill="none" xmlns="http://www.w3.org/2000/svg">
<path d="M9.5 5.2439C9.5 5.34335 9.46049 5.43874 9.39017 5.50906C9.31984 5.57939 9.22446 5.6189 9.125 5.6189H5.375V9.3689C5.375 9.46835 5.33549 9.56374 5.26517 9.63406C5.19484 9.70439 5.09946 9.7439 5 9.7439C4.90054 9.7439 4.80516 9.70439 4.73484 9.63406C4.66451 9.56374 4.625 9.46835 4.625 9.3689V5.6189H0.875C0.775544 5.6189 0.680161 5.57939 0.609835 5.50906C0.539509 5.43874 0.5 5.34335 0.5 5.2439C0.5 5.14444 0.539509 5.04906 0.609835 4.97873C0.680161 4.90841 0.775544 4.8689 0.875 4.8689H4.625V1.1189C4.625 1.01944 4.66451 0.924058 4.73484 0.853732C4.80516 0.783405 4.90054 0.743896 5 0.743896C5.09946 0.743896 5.19484 0.783405 5.26517 0.853732C5.33549 0.924058 5.375 1.01944 5.375 1.1189V4.8689H9.125C9.22446 4.8689 9.31984 4.90841 9.39017 4.97873C9.46049 5.04906 9.5 5.14444 9.5 5.2439Z" fill="#262626"/>
</svg>
