<svg width="20" height="20" viewBox="0 0 20 20" fill="none" xmlns="http://www.w3.org/2000/svg">
<path d="M19.6488 18.4969C18.2209 16.0285 16.0206 14.2585 13.4528 13.4194C14.723 12.6633 15.7098 11.5111 16.2618 10.1399C16.8137 8.7686 16.9003 7.25406 16.5082 5.82883C16.1161 4.4036 15.267 3.14649 14.0912 2.25055C12.9155 1.35461 11.4782 0.869385 10 0.869385C8.52182 0.869385 7.08451 1.35461 5.90878 2.25055C4.73306 3.14649 3.88394 4.4036 3.49183 5.82883C3.09971 7.25406 3.18629 8.7686 3.73825 10.1399C4.29021 11.5111 5.27704 12.6633 6.5472 13.4194C3.97938 14.2576 1.77907 16.0276 0.35126 18.4969C0.298899 18.5823 0.264169 18.6773 0.249118 18.7763C0.234067 18.8753 0.239 18.9764 0.263626 19.0735C0.288252 19.1705 0.332073 19.2617 0.392502 19.3416C0.452931 19.4214 0.528745 19.4884 0.61547 19.5385C0.702196 19.5886 0.798076 19.6208 0.897455 19.6332C0.996833 19.6457 1.0977 19.6381 1.19409 19.6109C1.29049 19.5837 1.38047 19.5375 1.45872 19.475C1.53697 19.4125 1.6019 19.3349 1.6497 19.2469C3.41595 16.1944 6.53782 14.3719 10 14.3719C13.4622 14.3719 16.5841 16.1944 18.3503 19.2469C18.3981 19.3349 18.4631 19.4125 18.5413 19.475C18.6196 19.5375 18.7095 19.5837 18.8059 19.6109C18.9023 19.6381 19.0032 19.6457 19.1026 19.6332C19.2019 19.6208 19.2978 19.5886 19.3845 19.5385C19.4713 19.4884 19.5471 19.4214 19.6075 19.3416C19.6679 19.2617 19.7118 19.1705 19.7364 19.0735C19.761 18.9764 19.766 18.8753 19.7509 18.7763C19.7358 18.6773 19.7011 18.5823 19.6488 18.4969ZM4.75001 7.62194C4.75001 6.58358 5.05792 5.56855 5.63479 4.70519C6.21167 3.84183 7.03161 3.16893 7.99092 2.77157C8.95023 2.37421 10.0058 2.27024 11.0242 2.47281C12.0426 2.67538 12.9781 3.1754 13.7123 3.90962C14.4465 4.64385 14.9466 5.57931 15.1491 6.59771C15.3517 7.61611 15.2477 8.67171 14.8504 9.63102C14.453 10.5903 13.7801 11.4103 12.9168 11.9872C12.0534 12.564 11.0384 12.8719 10 12.8719C8.60808 12.8704 7.27359 12.3168 6.28934 11.3326C5.3051 10.3484 4.7515 9.01386 4.75001 7.62194Z" fill="#141414"/>
</svg>
