<svg width="20" height="21" viewBox="0 0 20 21" fill="none" xmlns="http://www.w3.org/2000/svg">
<path d="M19.5306 19.0913L14.8365 14.3982C16.1971 12.7648 16.8755 10.6697 16.7307 8.54886C16.5859 6.42799 15.629 4.44459 14.0591 3.01127C12.4892 1.57794 10.4271 0.805031 8.30188 0.853331C6.17663 0.901631 4.15181 1.76742 2.64864 3.27059C1.14547 4.77376 0.279683 6.79858 0.231383 8.92383C0.183083 11.0491 0.955989 13.1111 2.38932 14.6811C3.82265 16.251 5.80604 17.2078 7.92691 17.3526C10.0478 17.4974 12.1428 16.819 13.7762 15.4585L18.4693 20.1525C18.539 20.2222 18.6218 20.2775 18.7128 20.3152C18.8038 20.3529 18.9014 20.3723 19 20.3723C19.0985 20.3723 19.1961 20.3529 19.2871 20.3152C19.3782 20.2775 19.4609 20.2222 19.5306 20.1525C19.6003 20.0829 19.6556 20.0001 19.6933 19.9091C19.731 19.818 19.7504 19.7205 19.7504 19.6219C19.7504 19.5234 19.731 19.4258 19.6933 19.3347C19.6556 19.2437 19.6003 19.161 19.5306 19.0913ZM1.74997 9.12192C1.74997 7.78689 2.14585 6.48185 2.88755 5.37182C3.62925 4.26179 4.68345 3.39662 5.91686 2.88573C7.15026 2.37484 8.50746 2.24117 9.81683 2.50162C11.1262 2.76207 12.3289 3.40494 13.2729 4.34895C14.2169 5.29295 14.8598 6.49569 15.1203 7.80506C15.3807 9.11443 15.247 10.4716 14.7362 11.705C14.2253 12.9384 13.3601 13.9926 12.2501 14.7343C11.14 15.476 9.83499 15.8719 8.49997 15.8719C6.71037 15.8699 4.99463 15.1581 3.72919 13.8927C2.46375 12.6273 1.75195 10.9115 1.74997 9.12192Z" fill="#141414"/>
</svg>
