<svg width="17" height="20" viewBox="0 0 17 20" fill="none" xmlns="http://www.w3.org/2000/svg">
<path d="M13.125 12.9939C12.6664 12.9937 12.2124 13.0856 11.7899 13.2641C11.3675 13.4426 10.9851 13.704 10.6655 14.0329L6.70377 11.4866C7.01541 10.6874 7.01541 9.80037 6.70377 9.00124L10.6655 6.45491C11.2606 7.06448 12.0608 7.43138 12.911 7.48447C13.7612 7.53755 14.6009 7.27305 15.2672 6.74224C15.9335 6.21143 16.3789 5.45212 16.5172 4.61154C16.6554 3.77096 16.4766 2.90898 16.0155 2.19273C15.5543 1.47648 14.8436 0.956979 14.0212 0.734953C13.1987 0.512926 12.3231 0.604191 11.5642 0.991051C10.8052 1.37791 10.2169 2.03281 9.91337 2.82877C9.60982 3.62473 9.61264 4.50505 9.92127 5.29905L5.95955 7.84538C5.48249 7.3556 4.8702 7.01921 4.20096 6.87922C3.53173 6.73923 2.83594 6.80199 2.20256 7.05948C1.56918 7.31697 1.02697 7.7575 0.645247 8.32474C0.263525 8.89198 0.0596313 9.56017 0.0596313 10.2439C0.0596313 10.9276 0.263525 11.5958 0.645247 12.163C1.02697 12.7303 1.56918 13.1708 2.20256 13.4283C2.83594 13.6858 3.53173 13.7486 4.20096 13.6086C4.8702 13.4686 5.48249 13.1322 5.95955 12.6424L9.92127 15.1887C9.65587 15.8733 9.6166 16.6248 9.80921 17.3332C10.0018 18.0417 10.4162 18.6698 10.9916 19.1258C11.5671 19.5817 12.2734 19.8414 13.0071 19.8668C13.7408 19.8923 14.4634 19.6822 15.0691 19.2672C15.6748 18.8523 16.1317 18.2544 16.3729 17.561C16.6142 16.8676 16.6271 16.1151 16.4098 15.4139C16.1924 14.7126 15.7563 14.0993 15.1652 13.6639C14.5742 13.2284 13.8592 12.9936 13.125 12.9939ZM13.125 1.99389C13.5329 1.99389 13.9317 2.11486 14.2709 2.34149C14.6101 2.56812 14.8744 2.89024 15.0305 3.26711C15.1866 3.64398 15.2275 4.05868 15.1479 4.45877C15.0683 4.85885 14.8719 5.22636 14.5834 5.5148C14.295 5.80325 13.9275 5.99968 13.5274 6.07926C13.1273 6.15885 12.7126 6.118 12.3357 5.9619C11.9589 5.80579 11.6367 5.54143 11.4101 5.20226C11.1835 4.86308 11.0625 4.46432 11.0625 4.05639C11.0625 3.50939 11.2798 2.98478 11.6666 2.59799C12.0534 2.21119 12.578 1.99389 13.125 1.99389ZM3.50002 12.3064C3.0921 12.3064 2.69334 12.1854 2.35416 11.9588C2.01498 11.7322 1.75063 11.4101 1.59452 11.0332C1.43842 10.6563 1.39757 10.2416 1.47715 9.84152C1.55674 9.44143 1.75317 9.07393 2.04162 8.78549C2.33006 8.49704 2.69756 8.30061 3.09765 8.22102C3.49774 8.14144 3.91244 8.18229 4.28931 8.33839C4.66618 8.4945 4.9883 8.75885 5.21493 9.09803C5.44156 9.43721 5.56252 9.83597 5.56252 10.2439C5.56252 10.7909 5.34523 11.3155 4.95843 11.7023C4.57164 12.0891 4.04703 12.3064 3.50002 12.3064ZM13.125 18.4939C12.7171 18.4939 12.3183 18.3729 11.9792 18.1463C11.64 17.9197 11.3756 17.5976 11.2195 17.2207C11.0634 16.8438 11.0226 16.4291 11.1022 16.029C11.1817 15.6289 11.3782 15.2614 11.6666 14.973C11.9551 14.6845 12.3226 14.4881 12.7226 14.4085C13.1227 14.3289 13.5374 14.3698 13.9143 14.5259C14.2912 14.682 14.6133 14.9464 14.8399 15.2855C15.0666 15.6247 15.1875 16.0235 15.1875 16.4314C15.1875 16.9784 14.9702 17.503 14.5834 17.8898C14.1966 18.2766 13.672 18.4939 13.125 18.4939Z" fill="#262626"/>
</svg>
