<svg width="22" height="19" viewBox="0 0 22 19" fill="red" xmlns="http://www.w3.org/2000/svg">
  <path d="M15.6875 0.621948C13.7516 0.621948 12.0566 1.45445 11 2.86164C9.94344 1.45445 8.24844 0.621948 6.3125 0.621948C4.77146 0.623685 3.29404 1.23663 2.20436 2.32631C1.11468 3.41599 0.501737 4.89341 0.5 6.43445C0.5 12.9969 10.2303 18.3088 10.6447 18.5282C10.7539 18.587 10.876 18.6177 11 18.6177C11.124 18.6177 11.2461 18.587 11.3553 18.5282C11.7697 18.3088 21.5 12.9969 21.5 6.43445C21.4983 4.89341 20.8853 3.41599 19.7956 2.32631C18.706 1.23663 17.2285 0.623685 15.6875 0.621948ZM11 17.0094C9.28813 16.0119 2 11.4679 2 6.43445C2.00149 5.29116 2.45632 4.19512 3.26475 3.38669C4.07317 2.57827 5.16921 2.12344 6.3125 2.12195C8.13594 2.12195 9.66687 3.0932 10.3062 4.6532C10.3628 4.79076 10.4589 4.90841 10.5824 4.99121C10.7059 5.07401 10.8513 5.11822 11 5.11822C11.1487 5.11822 11.2941 5.07401 11.4176 4.99121C11.5411 4.90841 11.6372 4.79076 11.6937 4.6532C12.3331 3.09039 13.8641 2.12195 15.6875 2.12195C16.8308 2.12344 17.9268 2.57827 18.7353 3.38669C19.5437 4.19512 19.9985 5.29116 20 6.43445C20 11.4604 12.71 16.011 11 17.0094Z" fill="red"/>
</svg>
